# xmcd CD database file
#
# Track frame offsets:
#	150
#	16959
#	30536
#	44628
#	59026
#	80036
#	92659
#	110656
#	127757
#	144112
#	162914
#	181414
#	192659
#	210181
#	232566
#	249193
#	267109
#	287135
#	298053
#	313945
#	329904
#	347857
#
# Disc length: 4801 seconds
#
# Revision: 6
# Processed by: cddbd v1.5.2PL0 Copyright (c) Steve Scherf et al.
# Submitted via: CDex 1.70beta2
#
DISCID=4712bf16
DTITLE=Enya - The Very Best of Enya (Deluxe Edition)
DYEAR=2009
DGENRE=New Age
TTITLE0=Trains And Winter Rains
TTITLE1=My! My! Time Flies!
TTITLE2=Stars And Midnight Blue
TTITLE3=Amarantine
TTITLE4=Sumiregusa
TTITLE5=The River Sings
TTITLE6=If I Could Be Where You Are
TTITLE7=Wild Child
TTITLE8=Only Time
TTITLE9=Drifting
TTITLE10=Flora's Secret
TTITLE11=Fallen Embers
TTITLE12=One By One
TTITLE13=Pax Deorum
TTITLE14=Athair Ar Neamh
TTITLE15=Anywhere Is
TTITLE16=Orinoco Flow
TTITLE17=Watermark
TTITLE18=Boadicea
TTITLE19=May It Be
TTITLE20=Carribbean Blue
TTITLE21=Aniron (I Desire) - Theme For Aragorn and Arwen
EXTD=LABEL =Warner Music UK ID =256426CD UPC =8-25646-85226-0 COPYRIGHT =2009 COMMENT =Deluxe Edition 2-disc CD and DVD set. The Deluxe Edition CD is a different compilation than the StandardEdition. Standard Edition more evenly covers her career - the
EXTD=Deluxe Edition focuses more on her recent work and is a better companion to Paint The Stars, her first Best Of compilation. YEAR: 2009
EXTT0=
EXTT1=
EXTT2=
EXTT3=
EXTT4=
EXTT5=
EXTT6=
EXTT7=
EXTT8=
EXTT9=
EXTT10=
EXTT11=
EXTT12=
EXTT13=
EXTT14=
EXTT15=
EXTT16=
EXTT17=
EXTT18=
EXTT19=
EXTT20=
EXTT21=
PLAYORDER=
